<?xml version="1.0" standalone="no"?><!DOCTYPE svg PUBLIC "-//W3C//DTD SVG 1.1//EN" "http://www.w3.org/Graphics/SVG/1.1/DTD/svg11.dtd"><svg class="icon" width="200px" height="200.00px" viewBox="0 0 1024 1024" version="1.1" xmlns="http://www.w3.org/2000/svg"><path d="M551.947789 942.731688c247.260857 0 448.932466-174.505909 448.932466-388.459883 0-213.966016-201.671609-388.471925-448.932466-388.471925-247.272898 0-448.944508 174.505909-448.944508 388.471925 0.012042 213.953974 201.683651 388.459883 448.944508 388.459883z" fill="#FFFCDB" /><path d="M432.00207 867.85743c-226.477169 0-410.712638-184.24751-410.712638-410.712638 0-23.15587 2.022978-46.672985 6.008725-69.913145l50.454027 8.657863a363.871071 363.871071 0 0 0-5.274192 61.255282c0 198.239772 161.284305 359.512036 359.512036 359.512036 198.227731 0 359.512036-161.284305 359.512036-359.512036 0-198.227731-161.284305-359.499994-359.512036-359.499994-111.456438 0-214.748715 50.393819-283.373417 138.260892l-40.35118-31.512694c78.402427-100.378226 196.397418-157.9488 323.724597-157.9488 226.465128 0 410.712638 184.235468 410.712638 410.700596 0.012042 226.465128-184.235468 410.712638-410.700596 410.712638z" fill="#F08437" /><path d="M413.602606 230.270252h25.600301v227.512742h-25.600301z" fill="#F08437" /><path d="M399.42972 238.831783h25.600302v227.524783h-25.600302z"  /><path d="M412.229871 448.354473h157.069768v17.062853H412.229871z"  /></svg>