<?xml version="1.0" standalone="no"?><!DOCTYPE svg PUBLIC "-//W3C//DTD SVG 1.1//EN" "http://www.w3.org/Graphics/SVG/1.1/DTD/svg11.dtd"><svg class="icon" width="200px" height="200.00px" viewBox="0 0 1024 1024" version="1.1" xmlns="http://www.w3.org/2000/svg"><path d="M806.4 352s-19.2-38.4-51.2-83.2c-38.4-19.2-64-38.4-89.6-76.8-6.4-6.4-6.4-12.8-6.4-19.2-51.2-38.4-121.6-64-204.8-70.4L166.4 384l6.4 480s0 96 198.4 70.4h371.2s89.6-19.2 76.8-57.6l12.8-307.2-25.6-217.6z" fill="#FFFFFF" /><path d="M345.6 934.4v-217.6c0-51.2 44.8-96 96-96h96c51.2 0 96 44.8 96 96v217.6" fill="#FFDB00" /><path d="M723.2 960H262.4c-64 0-121.6-57.6-121.6-121.6V403.2c0-12.8 12.8-25.6 25.6-25.6s25.6 12.8 25.6 25.6v435.2c0 38.4 32 70.4 70.4 70.4h460.8c38.4 0 70.4-32 70.4-70.4V384c0-12.8 12.8-25.6 25.6-25.6s25.6 12.8 25.6 25.6v454.4c0 64-51.2 121.6-121.6 121.6z" fill="#272424" /><path d="M640 960c-12.8 0-25.6-12.8-25.6-25.6v-217.6c0-38.4-32-70.4-70.4-70.4H448c-38.4 0-70.4 32-70.4 70.4v217.6c0 12.8-12.8 25.6-25.6 25.6s-25.6-12.8-25.6-25.6v-217.6c0-64 57.6-121.6 121.6-121.6h96c64 0 121.6 57.6 121.6 121.6v217.6c0 12.8-12.8 25.6-25.6 25.6zM896 467.2c-6.4 0-12.8 0-19.2-6.4L550.4 134.4c-25.6-32-70.4-32-102.4 0L121.6 460.8c-6.4 6.4-25.6 6.4-32 0s-6.4-25.6 0-32l326.4-326.4c44.8-44.8 121.6-44.8 172.8 0l326.4 326.4c6.4 6.4 6.4 25.6 0 32-6.4 0-12.8 6.4-19.2 6.4z" fill="#272424" /></svg>