<?xml version="1.0" standalone="no"?><!DOCTYPE svg PUBLIC "-//W3C//DTD SVG 1.1//EN" "http://www.w3.org/Graphics/SVG/1.1/DTD/svg11.dtd"><svg class="icon" width="200px" height="200.00px" viewBox="0 0 1024 1024" version="1.1" xmlns="http://www.w3.org/2000/svg"><path d="M416 288H832c19.2 0 32-12.8 32-32s-12.8-32-32-32H416c-12.8 0-32 12.8-32 32s19.2 32 32 32z m0 256H832c19.2 0 32-12.8 32-32s-12.8-32-32-32H416c-12.8 0-32 12.8-32 32s19.2 32 32 32z m416 192H416c-12.8 0-32 12.8-32 32s12.8 32 32 32H832c19.2 0 32-12.8 32-32s-12.8-32-32-32z" fill="#878787" /><path d="M192 256c0 38.4 25.6 64 64 64s64-25.6 64-64-25.6-64-64-64-64 25.6-64 64zM192 512c0 38.4 25.6 64 64 64s64-25.6 64-64-25.6-64-64-64-64 25.6-64 64zM192 768c0 38.4 25.6 64 64 64s64-25.6 64-64-25.6-64-64-64-64 25.6-64 64z" fill="#FED724" /></svg>