<?xml version="1.0" standalone="no"?><!DOCTYPE svg PUBLIC "-//W3C//DTD SVG 1.1//EN" "http://www.w3.org/Graphics/SVG/1.1/DTD/svg11.dtd"><svg class="icon" width="200px" height="200.00px" viewBox="0 0 1024 1024" version="1.1" xmlns="http://www.w3.org/2000/svg"><path d="M275 599.6c-36 26.5-65.5 59.2-87.7 97.3-22.9 39.1-36.7 81.7-41.2 126.6-1.1 11.5 7.5 21.7 19.3 22.9 0.7 0.1 1.4 0.1 2.1 0.1 10.9 0 20.2-8.1 21.3-18.9 7.7-76.9 48.5-147.8 112.1-194.5 9.5-7 11.3-20.1 4.2-29.3-7.2-9.3-20.7-11.1-30.1-4.2zM786.6 824.3c-7.9-78.6-45.2-151.3-105.3-204.7-33.7-30-73.1-52.5-115.5-66.5 63.5-34.2 106.4-100.2 106.4-175.9 0-111-92.2-200.9-206-200.9s-206 90-206 200.9c0 108.4 88 196.7 198.1 200.8 0.8 0.1 1.5 0.1 2.3 0.1 147.2 0 269 107.6 283.3 250.3 1.1 10.8 10.4 18.9 21.3 18.9 0.7 0 1.4 0 2.1-0.1 11.1-1.1 19.4-10.2 19.4-20.8 0-0.7 0-1.4-0.1-2.1zM303.2 377.1c0-42.5 17-82.5 47.8-112.5 30.8-30.1 71.8-46.6 115.3-46.6s84.5 16.5 115.3 46.6c30.8 30.1 47.8 70 47.8 112.5s-17 82.5-47.8 112.5c-30.8 30.1-71.8 46.6-115.3 46.6s-84.5-16.5-115.3-46.6c-30.8-30.1-47.8-70-47.8-112.5z" fill="#59503E" /><path d="M468.7 243.5c-32.5 10.7-60.4 26.2-83.1 46.2-23.3 20.5-39.6 44.6-48.6 71.5-2.3 6.9 3.5 14.6 13 17.1 0.6 0.2 1.1 0.3 1.7 0.4 8.9 1.7 17.5-1.8 19.6-8.3 15.4-46.2 57.1-83.5 114.5-102.3 8.5-2.8 11.6-10.6 6.9-17.4-4.7-6.8-15.4-10-24-7.2z" fill="#59503E" /><path d="M383.092332 434.734282a121.5 121.5 0 1 0 239.197742-42.818695 121.5 121.5 0 1 0-239.197742 42.818695Z" fill="#FFD602" /><path d="M453.5 583s224.1-18.7 274.4 259.5c-63.7 27.9-433 21.5-433 21.5s-39.2-232.7 158.6-281z" fill="#FFD602" /></svg>